<?xml version="1.0" encoding="utf-8"?>
<!-- Generator: Adobe Illustrator 24.1.0, SVG Export Plug-In . SVG Version: 6.00 Build 0)  -->
<svg version="1.1" id="레이어_1" xmlns="http://www.w3.org/2000/svg" xmlns:xlink="http://www.w3.org/1999/xlink" x="0px"
	 y="0px" viewBox="0 0 193.6 33.7" style="enable-background:new 0 0 193.6 33.7;" xml:space="preserve">
<style type="text/css">
	.st0{fill:#6300FF;}
	.st1{fill:#000049;}
</style>
<g>
	<g>
		<g>
			<ellipse class="st0" cx="111.3" cy="14.7" rx="2.4" ry="2.4"/>
		</g>
		<path class="st1" d="M35,11.3C35,11.3,35,11.3,35,11.3L35,11.3V4.4c0-1-0.8-1.7-1.8-1.7c-1,0-1.8,0.8-1.8,1.7v7
			c0,1.5-1.2,2.7-2.8,2.7c-1.5,0-2.8-1.2-2.8-2.7v-7c0-1-0.8-1.7-1.8-1.7c-1,0-1.8,0.8-1.8,1.7v6.9h0c0,3.4,2.8,6.2,6.3,6.2
			c3.4,0,6.2-2.7,6.3-6.1l0,0V11.3z"/>
		<path class="st1" d="M49.5,7.7L49.5,7.7c0-2.8-2.2-5-5-5l-5.3,0c-1,0-1.8,0.8-1.8,1.7v12.7H41v-4.5h1.8l3.2,4.5h4.1l-3.5-4.9
			C48.3,11.5,49.5,9.7,49.5,7.7z M41,6.2h3.5c0.8,0,1.5,0.7,1.5,1.5c0,0.8-0.7,1.5-1.5,1.5H41V6.2z"/>
		<path class="st1" d="M63.8,7.7L63.8,7.7c0-2.8-2.2-5-5-5l-5.3,0c-1,0-1.8,0.8-1.8,1.7v12.7h3.5v-4.5h1.8l3.2,4.5h4.1l-3.5-4.9
			C62.6,11.5,63.8,9.7,63.8,7.7z M55.3,6.2h3.5c0.8,0,1.5,0.7,1.5,1.5c0,0.8-0.7,1.5-1.5,1.5h-3.5V6.2z"/>
		<path class="st1" d="M20.2,5.5c1-1.1,0.2-2.9-1.3-2.8c-0.4,0-0.8,0.2-1.1,0.5l-5.9,6.1V4.4c0-1-0.8-1.7-1.8-1.7
			c-1,0-1.8,0.8-1.8,1.7v12.7h3.5v-6.5l5,6.6l4.2,0l-5.4-7L20.2,5.5z"/>
		<path class="st1" d="M93.5,2.7c-1,0-1.8,0.8-1.8,1.7v7l-5.6-7.8c-0.4-0.6-1.1-0.9-1.8-0.9c-1.2,0-2.2,1-2.2,2.2v12.3h3.5V8.7
			l6,8.5h3.5V4.4C95.3,3.5,94.5,2.7,93.5,2.7z"/>
		<path class="st1" d="M73.3,2.6c-1.2,0-2.3,0.8-2.7,1.9l-4.8,12.7h3.5l0.9-2.5h6.1l0.9,2.5h3.5L76,4.5C75.6,3.3,74.5,2.6,73.3,2.6z
			 M71.5,11.4l1.8-4.8l1.8,4.8H71.5z"/>
		<path class="st1" d="M108.2,2.7l-10.8,0v3.5l4.4,0v11h3.5v-11h2.9c1,0,1.8-0.8,1.8-1.7C110,3.5,109.2,2.7,108.2,2.7z"/>
	</g>
	<g>
		<path class="st1" d="M34.1,24.2l-3.2,0v7.1l3.2,0v0c2,0,3.6-1.6,3.6-3.6C37.7,25.8,36.1,24.2,34.1,24.2z M34.1,29.8L34.1,29.8
			l-1.7,0v-4.2h1.7c1.1,0,2.1,0.9,2.1,2.1C36.2,28.9,35.2,29.8,34.1,29.8z"/>
		<path class="st1" d="M47.8,24.9c0-0.4-0.3-0.7-0.7-0.7s-0.7,0.3-0.7,0.7v6.4h5.5v-1.5h-4.1V24.9z"/>
		<path class="st1" d="M53.8,24.2c-0.4,0-0.7,0.3-0.7,0.7v6.4h1.5v-6.4C54.5,24.5,54.2,24.2,53.8,24.2z"/>
		<path class="st1" d="M64.9,24.2c-0.4,0-0.7,0.3-0.7,0.7v6.4h1.5v-6.4C65.6,24.5,65.3,24.2,64.9,24.2z"/>
		<path class="st1" d="M81.1,24.2L81.1,24.2c-0.4,0-0.7,0.3-0.7,0.7v3.4c0,1-0.8,1.7-1.7,1.7c-1,0-1.7-0.8-1.7-1.7v-3.4
			c0-0.4-0.3-0.7-0.7-0.7c-0.4,0-0.7,0.3-0.7,0.7v3.3c0,1.8,1.4,3.2,3.2,3.2s3.2-1.4,3.2-3.2v-3.3C81.9,24.5,81.5,24.2,81.1,24.2z"
			/>
		<path class="st1" d="M70.6,24c-2,0-3.7,1.7-3.7,3.7s1.7,3.7,3.7,3.7c2,0,3.7-1.7,3.7-3.7S72.7,24,70.6,24z M70.6,30
			c-1.2,0-2.2-1-2.2-2.2s1-2.2,2.2-2.2c1.2,0,2.2,1,2.2,2.2S71.9,30,70.6,30z"/>
		<path class="st1" d="M41.6,24.2c-0.5,0-0.9,0.3-1.1,0.7l-2.7,6.4h1.6L40,30h3.2l0.5,1.3h1.6l-2.7-6.4
			C42.5,24.4,42.1,24.2,41.6,24.2z M40.6,28.5l1-2.5l1,2.5H40.6z"/>
		<path class="st1" d="M59.3,25.5c1,0,1.8,0.7,2.1,1.6h1.5c-0.3-1.7-1.8-3-3.6-3c-2,0-3.7,1.7-3.7,3.7s1.7,3.7,3.7,3.7
			c1.8,0,3.3-1.3,3.6-3h-1.5c-0.3,0.9-1.1,1.6-2.1,1.6c-1.2,0-2.2-1-2.2-2.2S58.1,25.5,59.3,25.5z"/>
		<path class="st1" d="M86,27c-0.7-0.1-1.3-0.2-1.3-0.8c0-0.4,0.4-0.8,1.2-0.8c0.9,0,1.4,0.4,1.6,0.8h1.5c-0.1-0.9-1.1-2.2-3-2.2
			c0,0,0,0,0,0c-1.4,0-2.7,0.8-2.7,2.2c0,0.6,0.3,1.7,2.4,2c1.2,0.2,1.9,0.3,1.9,1c0,0.6-0.8,0.8-1.4,0.8c-0.9,0-1.6-0.5-1.7-0.9
			h-1.5c0,0.8,1.1,2.3,3.2,2.3c1.7,0.1,3-1,3-2.2C89,27.5,87,27.2,86,27z"/>
	</g>
</g>
</svg>
